<svg xmlns="http://www.w3.org/2000/svg" xmlns:xlink="http://www.w3.org/1999/xlink" width="500" zoomAndPan="magnify" viewBox="0 0 375 374.999991" height="500" preserveAspectRatio="xMidYMid meet" version="1.0"><defs><clipPath id="8fdaeb7cce"><path d="M 20.558594 20.558594 L 354.441406 20.558594 L 354.441406 354.441406 L 20.558594 354.441406 Z M 20.558594 20.558594 " clip-rule="nonzero"/></clipPath><clipPath id="fd7507b79b"><path d="M 37.808594 20.558594 L 337.191406 20.558594 C 341.765625 20.558594 346.152344 22.375 349.386719 25.613281 C 352.625 28.847656 354.441406 33.234375 354.441406 37.808594 L 354.441406 337.191406 C 354.441406 341.765625 352.625 346.152344 349.386719 349.386719 C 346.152344 352.625 341.765625 354.441406 337.191406 354.441406 L 37.808594 354.441406 C 33.234375 354.441406 28.847656 352.625 25.613281 349.386719 C 22.375 346.152344 20.558594 341.765625 20.558594 337.191406 L 20.558594 37.808594 C 20.558594 33.234375 22.375 28.847656 25.613281 25.613281 C 28.847656 22.375 33.234375 20.558594 37.808594 20.558594 Z M 37.808594 20.558594 " clip-rule="nonzero"/></clipPath><clipPath id="ad0b572fb1"><path d="M 127.875 96.75 L 178.53125 96.75 L 178.53125 354.441406 L 127.875 354.441406 Z M 127.875 96.75 " clip-rule="nonzero"/></clipPath><clipPath id="645946eeee"><path d="M 192.863281 128.617188 L 243.523438 128.617188 L 243.523438 354.441406 L 192.863281 354.441406 Z M 192.863281 128.617188 " clip-rule="nonzero"/></clipPath><clipPath id="bd8a5a6ff1"><path d="M 61 29 L 184 29 L 184 153 L 61 153 Z M 61 29 " clip-rule="nonzero"/></clipPath><clipPath id="19187fd38f"><path d="M 61.023438 91.011719 L 122.464844 29.566406 L 183.910156 91.011719 L 122.464844 152.453125 Z M 61.023438 91.011719 " clip-rule="nonzero"/></clipPath><clipPath id="05fede094e"><path d="M 187 61 L 311 61 L 311 185 L 187 185 Z M 187 61 " clip-rule="nonzero"/></clipPath><clipPath id="2cef9efd68"><path d="M 248.9375 61.886719 L 310.382812 123.332031 L 248.9375 184.773438 L 187.496094 123.332031 Z M 248.9375 61.886719 " clip-rule="nonzero"/></clipPath></defs><g clip-path="url(#8fdaeb7cce)"><g clip-path="url(#fd7507b79b)"><path fill="#f97316" d="M 20.558594 20.558594 L 354.441406 20.558594 L 354.441406 354.441406 L 20.558594 354.441406 Z M 20.558594 20.558594 " fill-opacity="1" fill-rule="nonzero"/></g></g><g clip-path="url(#ad0b572fb1)"><path fill="#ffffff" d="M 127.875 96.75 L 178.53125 96.75 L 178.53125 354.394531 L 127.875 354.394531 Z M 127.875 96.75 " fill-opacity="1" fill-rule="nonzero"/></g><g clip-path="url(#645946eeee)"><path fill="#ffffff" d="M 192.863281 128.617188 L 243.523438 128.617188 L 243.523438 354.402344 L 192.863281 354.402344 Z M 192.863281 128.617188 " fill-opacity="1" fill-rule="nonzero"/></g><g clip-path="url(#bd8a5a6ff1)"><g clip-path="url(#19187fd38f)"><path fill="#f97316" d="M 61.023438 91.011719 L 122.464844 29.566406 L 183.910156 91.011719 L 122.464844 152.453125 Z M 61.023438 91.011719 " fill-opacity="1" fill-rule="nonzero"/></g></g><g clip-path="url(#05fede094e)"><g clip-path="url(#2cef9efd68)"><path fill="#f97316" d="M 248.9375 61.886719 L 310.382812 123.332031 L 248.9375 184.773438 L 187.496094 123.332031 Z M 248.9375 61.886719 " fill-opacity="1" fill-rule="nonzero"/></g></g></svg>